<svg width="1000" height="1000" viewBox="0 0 1000 1000" fill="none" xmlns="http://www.w3.org/2000/svg">
<path d="M1000 0H0V1000H1000V0Z" fill="#FF5151"/>
<path d="M352 685C328.667 685 308.167 680.667 290.5 672C273.167 663 259.667 650.5 250 634.5C240.667 618.167 236 599 236 577V418C236 395.667 240.667 376.5 250 360.5C259.667 344.5 273.167 332.167 290.5 323.5C308.167 314.5 328.667 310 352 310C375.667 310 396 314.5 413 323.5C430.333 332.167 443.833 344.5 453.5 360.5C463.167 376.5 468 395.667 468 418H405C405 400.667 400.333 387.5 391 378.5C382 369.5 369 365 352 365C335 365 321.833 369.5 312.5 378.5C303.167 387.5 298.5 400.5 298.5 417.5V577C298.5 594 303.167 607.167 312.5 616.5C321.833 625.5 335 630 352 630C369 630 382 625.5 391 616.5C400.333 607.167 405 594 405 577H468C468 598.667 463.167 617.667 453.5 634C443.833 650.333 430.333 663 413 672C396 680.667 375.667 685 352 685ZM538.305 680V315H600.805V405L599.305 457.5H616.305L599.305 472C599.305 449.333 605.805 431.667 618.805 419C632.138 406.333 650.305 400 673.305 400C700.305 400 721.805 409 737.805 427C754.138 445 762.305 469.167 762.305 499.5V680H699.805V506C699.805 489.333 695.471 476.5 686.805 467.5C678.138 458.5 665.971 454 650.305 454C634.971 454 622.805 458.667 613.805 468C605.138 477.333 600.805 490.667 600.805 508V680H538.305Z" fill="white"/>
</svg>
